<svg xmlns="http://www.w3.org/2000/svg" id="Layer_1" data-name="Layer 1" version="1.1" viewBox="0 0 1920 1080"><defs><clipPath id="clippath"><circle cx="1591.06" cy="627.92" r="90.76" class="cls-2"/></clipPath><clipPath id="clippath-1"><circle cx="319.71" cy="507.65" r="120.96" class="cls-2"/></clipPath><clipPath id="clippath-2"><circle cx="228.5" cy="789.92" r="52.47" class="cls-2"/></clipPath><clipPath id="clippath-3"><circle cx="410.92" cy="789.92" r="52.47" class="cls-2"/></clipPath><clipPath id="clippath-4"><circle cx="868.79" cy="789.92" r="52.47" class="cls-2"/></clipPath><clipPath id="clippath-5"><circle cx="1051.21" cy="789.92" r="52.47" class="cls-2"/></clipPath><clipPath id="clippath-6"><circle cx="960" cy="507.65" r="120.96" class="cls-2" transform="translate(-77.79 827.51) rotate(-45)"/></clipPath><clipPath id="clippath-7"><circle cx="1591.06" cy="378.89" r="40.84" class="cls-2"/></clipPath><clipPath id="clippath-8"><circle cx="1591.06" cy="877.43" r="40.84" class="cls-2"/></clipPath><clipPath id="clippath-9"><circle cx="1769.68" cy="778.67" r="40.84" class="cls-2"/></clipPath><clipPath id="clippath-10"><circle cx="1769.68" cy="486.22" r="40.84" class="cls-2"/></clipPath><clipPath id="clippath-11"><circle cx="1412.43" cy="778.67" r="40.84" class="cls-2"/></clipPath><clipPath id="clippath-12"><circle cx="1412.43" cy="729.5" r="39.37" class="cls-2"/></clipPath><clipPath id="clippath-13"><circle cx="1769.68" cy="729.5" r="39.37" class="cls-2"/></clipPath><clipPath id="clippath-14"><circle cx="1412.43" cy="486.22" r="40.84" class="cls-2"/></clipPath><clipPath id="clippath-15"><circle cx="1412.43" cy="537.16" r="39.37" class="cls-2"/></clipPath><clipPath id="clippath-16"><circle cx="1769.68" cy="537.16" r="39.37" class="cls-2"/></clipPath><clipPath id="clippath-17"><circle cx="1591.06" cy="428.7" r="39.37" class="cls-2"/></clipPath><clipPath id="clippath-18"><circle cx="1591.06" cy="828.04" r="39.37" class="cls-2"/></clipPath><style>.cls-2,.cls-3,.cls-4{fill:none}.cls-2,.cls-6{stroke-width:0}.cls-10,.cls-11,.cls-12,.cls-3,.cls-4,.cls-7,.cls-8,.cls-9{stroke:#000;stroke-linecap:round;stroke-linejoin:round}.cls-10,.cls-7{fill:#768cf5}.cls-4,.cls-7{stroke-width:1.5px}.cls-13{fill:#000;font-family:Poppins-Regular,Poppins;font-size:44.37px}.cls-13,.cls-14{isolation:isolate}.cls-8{fill:#b6f0b5}.cls-10,.cls-11,.cls-12,.cls-3,.cls-8,.cls-9{stroke-width:2px}.cls-9{fill:#fd5907}.cls-6{fill:#ddf9fd}.cls-11{fill:#f6ba22}.cls-12{fill:#fff}</style></defs><g id="Art"><rect width="1921.3" height="1080" x="-.65" fill="#fdf3d8" stroke-width="0"/><line x1="639.85" x2="639.85" y1="140.13" y2="939.87" class="cls-3"/><line x1="1280.76" x2="1280.76" y1="140.13" y2="939.87" class="cls-3"/><path d="M487.02 274.31a31.52 31.52 0 0 1-31.52 31.52H183.91a31.52 31.52 0 0 1-10.64-61.2 62.07 62.07 0 0 1 78.69-61.65c14.19-22.02 38.93-36.6 67.07-36.6s52.24 14.2 66.51 35.75a62.07 62.07 0 0 1 75.28 60.66l-.01.45a31.54 31.54 0 0 1 26.21 31.07Z" class="cls-12"/><g class="cls-14"><text class="cls-13" transform="translate(237.68 263.72)"><tspan x="0" y="0">Web 1.0</tspan></text></g><path d="M1127.31 274.31a31.52 31.52 0 0 1-31.52 31.52H824.2a31.52 31.52 0 0 1-10.64-61.2 62.07 62.07 0 0 1 78.69-61.65c14.19-22.02 38.93-36.6 67.07-36.6s52.24 14.2 66.51 35.75a62.07 62.07 0 0 1 75.28 60.66l-.01.45a31.54 31.54 0 0 1 26.21 31.07Z" class="cls-12"/><g class="cls-14"><text class="cls-13" transform="translate(872.32 263.72)"><tspan x="0" y="0">Web 2.0</tspan></text></g><path d="M1758.37 274.31a31.52 31.52 0 0 1-31.52 31.52h-271.59a31.52 31.52 0 0 1-10.64-61.2 62.07 62.07 0 0 1 78.69-61.65c14.19-22.02 38.93-36.6 67.07-36.6s52.24 14.2 66.51 35.75a62.07 62.07 0 0 1 75.28 60.66l-.01.45a31.54 31.54 0 0 1 26.21 31.07h0Z" class="cls-12"/><g class="cls-14"><text class="cls-13" transform="translate(1527.58 263.72)"><tspan x="0" y="0">Web3</tspan></text></g><circle cx="1591.06" cy="627.92" r="90.76" class="cls-10"/><g clip-path="url(#clippath)"><ellipse cx="1626.65" cy="627.92" class="cls-3" rx="90.76" ry="100.6"/><ellipse cx="1555.46" cy="627.92" class="cls-3" rx="90.76" ry="100.6"/><line x1="1591.06" x2="1591.06" y1="527.32" y2="744.48" class="cls-3"/><line x1="1425.02" x2="1757.09" y1="668.29" y2="668.29" class="cls-3"/><line x1="1425.02" x2="1757.09" y1="627.92" y2="627.92" class="cls-3"/><line x1="1425.02" x2="1757.09" y1="587.55" y2="587.55" class="cls-3"/></g><line x1="1686.7" x2="1727.43" y1="664.31" y2="695.58" class="cls-3"/><polyline points="1698.81 664.55 1686.71 664.3 1689.55 676.07" class="cls-3"/><polyline points="1715.35 696.21 1727.43 695.57 1723.74 684.05" class="cls-3"/><line x1="1454.68" x2="1495.41" y1="696.15" y2="664.87" class="cls-3"/><polyline points="1466.78 695.9 1454.69 696.15 1457.53 684.39" class="cls-3"/><polyline points="1483.33 664.24 1495.41 664.88 1491.72 676.4" class="cls-3"/><line x1="1686.7" x2="1727.43" y1="597.73" y2="566.46" class="cls-3"/><polyline points="1698.81 597.49 1686.71 597.74 1689.55 585.98" class="cls-3"/><polyline points="1715.35 565.82 1727.43 566.46 1723.74 577.98" class="cls-3"/><line x1="1454.68" x2="1495.41" y1="565.9" y2="597.17" class="cls-3"/><polyline points="1466.78 566.14 1454.69 565.89 1457.53 577.65" class="cls-3"/><polyline points="1483.33 597.82 1495.41 597.18 1491.72 585.66" class="cls-3"/><circle cx="319.71" cy="507.65" r="120.96" class="cls-10"/><g clip-path="url(#clippath-1)"><ellipse cx="367.15" cy="507.65" class="cls-3" rx="120.96" ry="134.09"/><ellipse cx="272.27" cy="507.65" class="cls-3" rx="120.96" ry="134.09"/><line x1="319.71" x2="319.71" y1="373.57" y2="663" class="cls-3"/><line x1="98.41" x2="541.01" y1="561.46" y2="561.46" class="cls-3"/><line x1="98.41" x2="541.01" y1="507.65" y2="507.65" class="cls-3"/><line x1="98.41" x2="541.01" y1="453.84" y2="453.84" class="cls-3"/></g><circle cx="228.5" cy="789.92" r="52.47" class="cls-6"/><circle cx="228.5" cy="775.69" r="24.18" class="cls-12"/><g clip-path="url(#clippath-2)"><circle cx="228.5" cy="840.54" r="35.01" class="cls-8"/></g><circle cx="228.5" cy="789.92" r="52.47" class="cls-3"/><circle cx="410.92" cy="789.92" r="52.47" class="cls-6"/><circle cx="410.92" cy="775.69" r="24.18" class="cls-12"/><g clip-path="url(#clippath-3)"><circle cx="410.92" cy="840.54" r="35.01" class="cls-8"/></g><circle cx="410.92" cy="789.92" r="52.47" class="cls-3"/><line x1="263.54" x2="231.28" y1="648.63" y2="717.43" class="cls-3"/><polyline points="245.82 710.88 231.09 717.43 228.5 701.51" class="cls-3"/><line x1="363.55" x2="395.81" y1="648.63" y2="717.43" class="cls-3"/><polyline points="381.27 710.88 396 717.43 398.59 701.51" class="cls-3"/><line x1="1591.3" x2="1591.49" y1="728.3" y2="779.65" class="cls-3"/><polyline points="1598.51 738.03 1591.31 728.31 1583.74 737.75" class="cls-3"/><polyline points="1583.6 770.49 1591.5 779.65 1598.35 769.68" class="cls-3"/><line x1="1591.3" x2="1591.49" y1="476.5" y2="527.84" class="cls-3"/><polyline points="1584.11 518.42 1591.49 528 1598.88 518.42" class="cls-3"/><polyline points="1598.78 485.82 1591.4 476.23 1584.01 485.82" class="cls-3"/><circle cx="868.79" cy="789.92" r="52.47" class="cls-6"/><circle cx="868.79" cy="775.69" r="24.18" class="cls-12"/><g clip-path="url(#clippath-4)"><circle cx="868.79" cy="840.54" r="35.01" class="cls-9"/></g><circle cx="868.79" cy="789.92" r="52.47" class="cls-3"/><circle cx="1051.21" cy="789.92" r="52.47" class="cls-6"/><circle cx="1051.21" cy="775.69" r="24.18" class="cls-12"/><g clip-path="url(#clippath-5)"><circle cx="1051.21" cy="840.54" r="35.01" class="cls-9"/></g><circle cx="1051.21" cy="789.92" r="52.47" class="cls-3"/><line x1="904.68" x2="872.42" y1="645.63" y2="714.43" class="cls-3"/><polyline points="890.45 653.24 904.66 645.63 908.41 661.32" class="cls-3"/><polyline points="886.96 707.88 872.23 714.43 869.64 698.51" class="cls-3"/><line x1="1004.69" x2="1036.95" y1="645.63" y2="714.43" class="cls-3"/><polyline points="1018.91 653.24 1004.7 645.63 1000.95 661.32" class="cls-3"/><polyline points="1022.4 707.88 1037.14 714.43 1039.73 698.51" class="cls-3"/><circle cx="960" cy="507.65" r="120.96" class="cls-10" transform="translate(-77.79 827.51) rotate(-45)"/><g clip-path="url(#clippath-6)"><ellipse cx="1007.44" cy="507.65" class="cls-3" rx="120.96" ry="134.09"/><ellipse cx="912.56" cy="507.65" class="cls-3" rx="120.96" ry="134.09"/><line x1="960" x2="960" y1="373.57" y2="663" class="cls-3"/><line x1="738.7" x2="1181.3" y1="561.46" y2="561.46" class="cls-3"/><line x1="738.7" x2="1181.3" y1="507.65" y2="507.65" class="cls-3"/><line x1="738.7" x2="1181.3" y1="453.84" y2="453.84" class="cls-3"/></g><circle cx="1591.06" cy="378.89" r="40.84" class="cls-7"/><g clip-path="url(#clippath-7)"><ellipse cx="1607.07" cy="378.89" class="cls-4" rx="40.84" ry="45.27"/><ellipse cx="1575.04" cy="378.89" class="cls-4" rx="40.84" ry="45.27"/><line x1="1591.06" x2="1591.06" y1="333.62" y2="431.33" class="cls-4"/><line x1="1516.34" x2="1665.77" y1="397.05" y2="397.05" class="cls-4"/><line x1="1516.34" x2="1665.77" y1="378.89" y2="378.89" class="cls-4"/><line x1="1516.34" x2="1665.77" y1="360.72" y2="360.72" class="cls-4"/></g><circle cx="1591.06" cy="877.43" r="40.84" class="cls-10"/><g clip-path="url(#clippath-8)"><ellipse cx="1607.07" cy="877.43" class="cls-3" rx="40.84" ry="45.27"/><ellipse cx="1575.04" cy="877.43" class="cls-3" rx="40.84" ry="45.27"/><line x1="1591.06" x2="1591.06" y1="832.16" y2="929.88" class="cls-3"/><line x1="1516.34" x2="1665.77" y1="895.6" y2="895.6" class="cls-3"/><line x1="1516.34" x2="1665.77" y1="877.43" y2="877.43" class="cls-3"/><line x1="1516.34" x2="1665.77" y1="859.27" y2="859.27" class="cls-3"/></g><circle cx="1769.68" cy="778.67" r="40.84" class="cls-7"/><g clip-path="url(#clippath-9)"><ellipse cx="1785.7" cy="778.67" class="cls-4" rx="40.84" ry="45.27"/><ellipse cx="1753.66" cy="778.67" class="cls-4" rx="40.84" ry="45.27"/><line x1="1769.68" x2="1769.68" y1="733.4" y2="831.11" class="cls-4"/><line x1="1694.97" x2="1844.39" y1="796.83" y2="796.83" class="cls-4"/><line x1="1694.97" x2="1844.39" y1="778.67" y2="778.67" class="cls-4"/><line x1="1694.97" x2="1844.39" y1="760.5" y2="760.5" class="cls-4"/></g><circle cx="1769.68" cy="486.22" r="40.84" class="cls-10"/><g clip-path="url(#clippath-10)"><ellipse cx="1785.7" cy="486.22" class="cls-3" rx="40.84" ry="45.27"/><ellipse cx="1753.66" cy="486.22" class="cls-3" rx="40.84" ry="45.27"/><line x1="1769.68" x2="1769.68" y1="440.95" y2="538.66" class="cls-3"/><line x1="1694.97" x2="1844.39" y1="504.38" y2="504.38" class="cls-3"/><line x1="1694.97" x2="1844.39" y1="486.22" y2="486.22" class="cls-3"/><line x1="1694.97" x2="1844.39" y1="468.05" y2="468.05" class="cls-3"/></g><circle cx="1412.43" cy="778.67" r="40.84" class="cls-10"/><g clip-path="url(#clippath-11)"><ellipse cx="1428.45" cy="778.67" class="cls-3" rx="40.84" ry="45.27"/><ellipse cx="1396.42" cy="778.67" class="cls-3" rx="40.84" ry="45.27"/><line x1="1412.43" x2="1412.43" y1="733.4" y2="831.11" class="cls-3"/><line x1="1337.72" x2="1487.14" y1="796.83" y2="796.83" class="cls-3"/><line x1="1337.72" x2="1487.14" y1="778.67" y2="778.67" class="cls-3"/><line x1="1337.72" x2="1487.14" y1="760.5" y2="760.5" class="cls-3"/></g><circle cx="1412.43" cy="729.5" r="39.37" class="cls-6"/><circle cx="1412.43" cy="718.82" r="18.14" class="cls-12"/><g clip-path="url(#clippath-12)"><circle cx="1412.43" cy="767.48" r="26.27" class="cls-11"/></g><circle cx="1412.43" cy="729.5" r="39.37" class="cls-3"/><circle cx="1769.68" cy="729.5" r="39.37" class="cls-6"/><circle cx="1769.68" cy="718.82" r="18.14" class="cls-12"/><g clip-path="url(#clippath-13)"><circle cx="1769.68" cy="767.48" r="26.27" class="cls-11"/></g><circle cx="1769.68" cy="729.5" r="39.37" class="cls-3"/><circle cx="1412.43" cy="486.22" r="40.84" class="cls-10"/><g clip-path="url(#clippath-14)"><ellipse cx="1428.45" cy="486.22" class="cls-3" rx="40.84" ry="45.27"/><ellipse cx="1396.42" cy="486.22" class="cls-3" rx="40.84" ry="45.27"/><line x1="1412.43" x2="1412.43" y1="440.95" y2="538.66" class="cls-3"/><line x1="1337.72" x2="1487.14" y1="504.38" y2="504.38" class="cls-3"/><line x1="1337.72" x2="1487.14" y1="486.22" y2="486.22" class="cls-3"/><line x1="1337.72" x2="1487.14" y1="468.05" y2="468.05" class="cls-3"/></g><circle cx="1412.43" cy="537.16" r="39.37" class="cls-6"/><circle cx="1412.43" cy="526.48" r="18.14" class="cls-12"/><g clip-path="url(#clippath-15)"><circle cx="1412.43" cy="575.14" r="26.27" class="cls-11"/></g><circle cx="1412.43" cy="537.16" r="39.37" class="cls-3"/><polyline points="1405.09 672.61 1412.48 682.19 1419.87 672.61" class="cls-3"/><polyline points="1419.77 594.15 1412.38 584.56 1404.99 594.15" class="cls-3"/><line x1="1412.38" x2="1412.38" y1="584.56" y2="682.19" class="cls-3"/><polyline points="1762.34 672.61 1769.73 682.19 1777.12 672.61" class="cls-3"/><polyline points="1777.02 594.15 1769.63 584.56 1762.24 594.15" class="cls-3"/><line x1="1769.63" x2="1769.63" y1="584.56" y2="682.19" class="cls-3"/><polyline points="1542.47 796.8 1545.93 808.39 1533.83 808.78" class="cls-3"/><polyline points="1462.59 758.19 1459.14 746.59 1471.23 746.2" class="cls-3"/><line x1="1459.14" x2="1545.98" y1="746.59" y2="808.32" class="cls-3"/><polyline points="1639.9 796.8 1636.45 808.39 1648.54 808.78" class="cls-3"/><polyline points="1719.78 758.19 1723.24 746.59 1711.14 746.2" class="cls-3"/><line x1="1723.24" x2="1636.39" y1="746.59" y2="808.32" class="cls-3"/><polyline points="1639.9 466.91 1636.45 455.32 1648.54 454.93" class="cls-3"/><polyline points="1719.78 505.52 1723.24 517.12 1711.14 517.51" class="cls-3"/><line x1="1723.24" x2="1636.39" y1="517.12" y2="455.4" class="cls-3"/><polyline points="1542.47 466.91 1545.93 455.32 1533.83 454.93" class="cls-3"/><polyline points="1462.59 505.52 1459.14 517.12 1471.23 517.51" class="cls-3"/><line x1="1459.14" x2="1545.98" y1="517.12" y2="455.4" class="cls-3"/><circle cx="1769.68" cy="537.16" r="39.37" class="cls-6"/><circle cx="1769.68" cy="526.48" r="18.14" class="cls-12"/><g clip-path="url(#clippath-16)"><circle cx="1769.68" cy="575.14" r="26.27" class="cls-11"/></g><circle cx="1769.68" cy="537.16" r="39.37" class="cls-3"/><circle cx="1591.06" cy="428.7" r="39.37" class="cls-6"/><circle cx="1591.06" cy="418.02" r="18.14" class="cls-12"/><g clip-path="url(#clippath-17)"><circle cx="1591.06" cy="466.68" r="26.27" class="cls-11"/></g><circle cx="1591.06" cy="428.7" r="39.37" class="cls-3"/><circle cx="1591.06" cy="828.04" r="39.37" class="cls-6"/><circle cx="1591.06" cy="817.36" r="18.14" class="cls-12"/><g clip-path="url(#clippath-18)"><circle cx="1591.06" cy="866.02" r="26.27" class="cls-11"/></g><circle cx="1591.06" cy="828.04" r="39.37" class="cls-3"/></g></svg>